<?xml version="1.0" encoding="UTF-8" standalone="no"?>
<!-- Created with Inkscape (http://www.inkscape.org/) -->

<svg
   xmlns:dc="http://purl.org/dc/elements/1.1/"
   xmlns:cc="http://creativecommons.org/ns#"
   xmlns:rdf="http://www.w3.org/1999/02/22-rdf-syntax-ns#"
   xmlns:svg="http://www.w3.org/2000/svg"
   xmlns="http://www.w3.org/2000/svg"
   xmlns:sodipodi="http://sodipodi.sourceforge.net/DTD/sodipodi-0.dtd"
   xmlns:inkscape="http://www.inkscape.org/namespaces/inkscape"
   width="16"
   height="16"
   id="svg5190"
   version="1.1"
   inkscape:version="0.91 r13725"
   sodipodi:docname="tag-rtl-symbolic (copy).svg">
  <defs
     id="defs5192" />
  <sodipodi:namedview
     id="base"
     pagecolor="#3a3b39"
     bordercolor="#666666"
     borderopacity="1.0"
     inkscape:pageopacity="1"
     inkscape:pageshadow="2"
     inkscape:zoom="32"
     inkscape:cx="5.4897854"
     inkscape:cy="10.282453"
     inkscape:document-units="px"
     inkscape:current-layer="g43077"
     showgrid="false"
     showguides="true"
     inkscape:guide-bbox="true"
     showborder="false"
     inkscape:window-width="1375"
     inkscape:window-height="804"
     inkscape:window-x="330"
     inkscape:window-y="107"
     inkscape:window-maximized="0">
    <sodipodi:guide
       orientation="1,0"
       position="137,41"
       id="guide5221" />
  </sodipodi:namedview>
  <metadata
     id="metadata5195">
    <rdf:RDF>
      <cc:Work
         rdf:about="">
        <dc:format>image/svg+xml</dc:format>
        <dc:type
           rdf:resource="http://purl.org/dc/dcmitype/StillImage" />
        <dc:title />
      </cc:Work>
    </rdf:RDF>
  </metadata>
  <g
     inkscape:label="Layer 1"
     inkscape:groupmode="layer"
     id="layer1"
     transform="translate(0,-1036.3622)">
    <g
       transform="matrix(-1,0,0,1,57.392857,276.32649)"
       id="g43077"
       style="display:inline">
      <g
         id="g3337"
         transform="matrix(-1,0,0,1,98.934117,0)">
        <path
           sodipodi:nodetypes="cscccccscc"
           inkscape:connector-curvature="0"
           id="path43079-5"
           d="m 50.549107,762.06696 6.46875,6.46875 c 0.469023,0.46901 0.375321,1.03093 0,1.40625 l -4.21875,4.25 c -0.359376,0.35941 -1.015625,0.39067 -1.40625,0.0312 l -0.75,-0.75 4.21875,-4.25 c 0.375321,-0.37532 0.469023,-0.93724 0,-1.40625 l -5.71875,-5.71875 z"
           style="color:#000000;display:inline;overflow:visible;visibility:visible;fill:#bebebe;fill-opacity:1;fill-rule:nonzero;stroke:none;stroke-width:1;marker:none;enable-background:accumulate" />
        <path
           sodipodi:nodetypes="csccccccccsssss"
           inkscape:connector-curvature="0"
           id="path43079"
           d="m 47.254912,760.95804 6.46875,6.46875 c 0.469023,0.46901 0.375321,1.03093 0,1.40625 l -4.21875,4.25 c -0.359376,0.35941 -1.015625,0.39062 -1.40625,0.0312 l -6.5,-6.5 0.15625,-4.9375 c -4e-6,-0.17009 0.425825,-0.5625 0.59375,-0.5625 l 4.90625,-0.15625 z m -3.06093,1.61049 c -0.543655,0 -1,0.4251 -1,0.96875 0,0.54366 0.456345,1 1,1 0.543655,0 0.96875,-0.45634 0.96875,-1 0,-0.54365 -0.425095,-0.96875 -0.96875,-0.96875 z"
           style="color:#000000;display:inline;overflow:visible;visibility:visible;fill:#bebebe;fill-opacity:1;fill-rule:nonzero;stroke:none;stroke-width:1;stroke-opacity:1;marker:none;enable-background:accumulate" />
      </g>
    </g>
  </g>
</svg>
