<?xml version="1.0" encoding="UTF-8" standalone="no"?>
<!-- Created with Inkscape (http://www.inkscape.org/) -->

<svg
   xmlns:dc="http://purl.org/dc/elements/1.1/"
   xmlns:cc="http://creativecommons.org/ns#"
   xmlns:rdf="http://www.w3.org/1999/02/22-rdf-syntax-ns#"
   xmlns:svg="http://www.w3.org/2000/svg"
   xmlns="http://www.w3.org/2000/svg"
   xmlns:xlink="http://www.w3.org/1999/xlink"
   xmlns:sodipodi="http://sodipodi.sourceforge.net/DTD/sodipodi-0.dtd"
   xmlns:inkscape="http://www.inkscape.org/namespaces/inkscape"
   inkscape:export-ydpi="90.000000"
   inkscape:export-xdpi="90.000000"
   inkscape:export-filename="/home/lapo/firewall.png"
   width="400"
   height="300"
   id="svg11300"
   sodipodi:version="0.32"
   inkscape:version="0.91 r13725"
   sodipodi:docname="xfce4-panel-menu.svg"
   inkscape:output_extension="org.inkscape.output.svg.inkscape"
   version="1.0"
   style="display:inline;enable-background:new">
  <title
     id="title4872">Firewall</title>
  <sodipodi:namedview
     stroke="#ef2929"
     fill="#f57900"
     id="base"
     pagecolor="#ffffff"
     bordercolor="#666666"
     borderopacity="0.25490196"
     inkscape:pageopacity="0"
     inkscape:pageshadow="2"
     inkscape:zoom="1.2815401"
     inkscape:cx="348.99572"
     inkscape:cy="179.02197"
     inkscape:current-layer="layer1"
     showgrid="false"
     inkscape:grid-bbox="true"
     inkscape:document-units="px"
     inkscape:showpageshadow="false"
     inkscape:window-width="959"
     inkscape:window-height="1018"
     inkscape:window-x="960"
     inkscape:window-y="27"
     width="400px"
     height="300px"
     inkscape:snap-nodes="false"
     inkscape:snap-bbox="true"
     gridtolerance="10000"
     inkscape:object-nodes="true"
     inkscape:snap-grids="true"
     showguides="false"
     inkscape:guide-bbox="true"
     inkscape:window-maximized="0">
    <inkscape:grid
       spacingy="1px"
       spacingx="1px"
       id="grid5883"
       type="xygrid"
       enabled="true"
       visible="true"
       empspacing="4"
       snapvisiblegridlinesonly="true" />
    <inkscape:grid
       type="xygrid"
       id="grid11592"
       empspacing="2"
       visible="true"
       enabled="false"
       spacingx="0.5px"
       spacingy="0.5px"
       color="#ff0000"
       opacity="0.1254902"
       empcolor="#ff0000"
       empopacity="0.25098039"
       snapvisiblegridlinesonly="true" />
    <sodipodi:guide
       orientation="-0.70710678,0.70710678"
       position="309.8125,173.625"
       id="guide9630" />
  </sodipodi:namedview>
  <defs
     id="defs3">
    <inkscape:perspective
       sodipodi:type="inkscape:persp3d"
       inkscape:vp_x="0 : 150 : 1"
       inkscape:vp_y="0 : 1000 : 0"
       inkscape:vp_z="400 : 150 : 1"
       inkscape:persp3d-origin="200 : 100 : 1"
       id="perspective503" />
    <linearGradient
       id="linearGradient6465">
      <stop
         style="stop-color:#f0f0ee;stop-opacity:1"
         offset="0"
         id="stop6467" />
      <stop
         style="stop-color:#2e3436;stop-opacity:1"
         offset="1"
         id="stop6469" />
    </linearGradient>
    <linearGradient
       id="linearGradient5211">
      <stop
         style="stop-color:#ffffff;stop-opacity:1"
         offset="0"
         id="stop5213" />
      <stop
         id="stop5298"
         offset="0.60000002"
         style="stop-color:#d3d7cf;stop-opacity:1" />
      <stop
         style="stop-color:#eeeeec;stop-opacity:1"
         offset="1"
         id="stop5215" />
    </linearGradient>
    <linearGradient
       id="linearGradient7134">
      <stop
         id="stop7136"
         offset="0"
         style="stop-color:#f0f0ee;stop-opacity:1" />
      <stop
         id="stop7138"
         offset="1"
         style="stop-color:#a1a196;stop-opacity:1" />
    </linearGradient>
    <linearGradient
       id="linearGradient3496">
      <stop
         style="stop-color:#ffffff;stop-opacity:1;"
         offset="0"
         id="stop3498" />
      <stop
         id="stop3504"
         offset="0.5"
         style="stop-color:#ffffff;stop-opacity:1" />
      <stop
         style="stop-color:#ffffff;stop-opacity:0;"
         offset="1"
         id="stop3500" />
    </linearGradient>
    <linearGradient
       id="linearGradient3649">
      <stop
         style="stop-color:#ffffff;stop-opacity:0"
         offset="0"
         id="stop3651" />
      <stop
         id="stop3657"
         offset="0.63925338"
         style="stop-color:#ffffff;stop-opacity:0" />
      <stop
         style="stop-color:#ffffff;stop-opacity:1"
         offset="1"
         id="stop3653" />
    </linearGradient>
    <linearGradient
       id="linearGradient3597">
      <stop
         style="stop-color:#ffffff;stop-opacity:0"
         offset="0"
         id="stop3599" />
      <stop
         id="stop3654"
         offset="0.40612376"
         style="stop-color:#ffffff;stop-opacity:0" />
      <stop
         style="stop-color:#ffffff;stop-opacity:1"
         offset="1"
         id="stop3601" />
    </linearGradient>
    <linearGradient
       id="linearGradient3831">
      <stop
         id="stop3833"
         offset="0"
         style="stop-color:#000000;stop-opacity:1;" />
      <stop
         style="stop-color:#000000;stop-opacity:0.49803922;"
         offset="0.66581178"
         id="stop3835-8" />
      <stop
         id="stop3837-8"
         offset="1"
         style="stop-color:#000000;stop-opacity:0;" />
    </linearGradient>
    <linearGradient
       id="linearGradient9664">
      <stop
         style="stop-color:#000000;stop-opacity:1;"
         offset="0"
         id="stop9666" />
      <stop
         id="stop9075"
         offset="0.5"
         style="stop-color:#000000;stop-opacity:0.49803922;" />
      <stop
         style="stop-color:#000000;stop-opacity:0;"
         offset="1"
         id="stop9668" />
    </linearGradient>
    <linearGradient
       id="linearGradient9077">
      <stop
         id="stop9079"
         offset="0"
         style="stop-color:#000000;stop-opacity:1;" />
      <stop
         style="stop-color:#000000;stop-opacity:0.49803922;"
         offset="0.79958123"
         id="stop9081" />
      <stop
         id="stop9083"
         offset="1"
         style="stop-color:#000000;stop-opacity:0;" />
    </linearGradient>
    <clipPath
       clipPathUnits="userSpaceOnUse"
       id="clipPath9376">
      <path
         style="fill:#000000;fill-opacity:1;stroke:none;display:inline;enable-background:new"
         d="m 144,140 c -50.784,0 -92,28.672 -92,64 0,8.33697 0.761099,16.62716 3.8125,24 3.747157,9.05394 9.783043,15.12993 18.09375,19.5625 l 0.4375,6.1875 C 91.21882,257.57677 116.16005,260 144,260 c 27.83995,0 52.78118,-2.42323 69.65625,-6.25 l 0.46875,-6.25 c 8.27492,-4.42931 14.33455,-10.48829 18.0625,-19.5 3.05018,-7.37334 3.8125,-15.66303 3.8125,-24 0,-35.328 -41.21599,-64 -92,-64 z"
         id="path9378"
         sodipodi:nodetypes="cssccsccssc" />
    </clipPath>
    <linearGradient
       id="linearGradient7134-2">
      <stop
         id="stop7136-8"
         offset="0"
         style="stop-color:#f0f0ee;stop-opacity:1" />
      <stop
         id="stop7138-2"
         offset="1"
         style="stop-color:#a1a196;stop-opacity:1" />
    </linearGradient>
    <linearGradient
       inkscape:collect="always"
       xlink:href="#linearGradient9351"
       id="linearGradient9321"
       gradientUnits="userSpaceOnUse"
       x1="151"
       y1="242.51463"
       x2="151"
       y2="202.48105" />
    <linearGradient
       id="linearGradient9351"
       inkscape:collect="always">
      <stop
         id="stop9353"
         offset="0"
         style="stop-color:#000000;stop-opacity:1" />
      <stop
         id="stop9355"
         offset="1"
         style="stop-color:#000000;stop-opacity:0;" />
    </linearGradient>
    <clipPath
       clipPathUnits="userSpaceOnUse"
       id="clipPath9283">
      <path
         style="fill:#000000;fill-opacity:1;stroke:none;display:inline;enable-background:new"
         d="m 68,168 5.90625,79.5625 0.28125,3.78125 0.15625,2.40625 C 91.21882,257.57677 116.16005,260 144,260 c 27.83995,0 52.78118,-2.42323 69.65625,-6.25 L 214.125,247.5 220,168 68,168 z"
         id="path9285" />
    </clipPath>
    <linearGradient
       id="linearGradient9309">
      <stop
         style="stop-color:#000000;stop-opacity:1"
         offset="0"
         id="stop9311" />
      <stop
         style="stop-color:#888a85;stop-opacity:1"
         offset="1"
         id="stop9313" />
    </linearGradient>
    <clipPath
       clipPathUnits="userSpaceOnUse"
       id="clipPath9301">
      <path
         transform="matrix(12.10811,0,0,13.405405,-791.35149,-654.37837)"
         d="m 81.875,56.125 a 4.625,4.625 0 1 1 -9.25,0 4.625,4.625 0 1 1 9.25,0 z"
         sodipodi:ry="4.625"
         sodipodi:rx="4.625"
         sodipodi:cy="56.125"
         sodipodi:cx="77.25"
         id="path9303"
         style="fill:#000000;fill-opacity:1;fill-rule:evenodd;stroke:none;stroke-width:0.08370943;marker:none;visibility:visible;display:inline;overflow:visible;enable-background:accumulate"
         sodipodi:type="arc" />
    </clipPath>
    <linearGradient
       id="linearGradient7134-5">
      <stop
         id="stop7136-97"
         offset="0"
         style="stop-color:#f0f0ee;stop-opacity:1" />
      <stop
         id="stop7138-8"
         offset="1"
         style="stop-color:#a1a196;stop-opacity:1" />
    </linearGradient>
    <linearGradient
       id="linearGradient5211-7-0">
      <stop
         style="stop-color:#ffffff;stop-opacity:1"
         offset="0"
         id="stop5213-8-5" />
      <stop
         id="stop5298-4-5"
         offset="0.60000002"
         style="stop-color:#d3d7cf;stop-opacity:1" />
      <stop
         style="stop-color:#eeeeec;stop-opacity:1"
         offset="1"
         id="stop5215-7-2" />
    </linearGradient>
    <linearGradient
       id="linearGradient7134-5-9-8">
      <stop
         id="stop7136-97-8-5"
         offset="0"
         style="stop-color:#f0f0ee;stop-opacity:1" />
      <stop
         id="stop7138-8-5-5"
         offset="1"
         style="stop-color:#a1a196;stop-opacity:1" />
    </linearGradient>
    <linearGradient
       id="linearGradient5211-7-0-7">
      <stop
         style="stop-color:#ffffff;stop-opacity:1"
         offset="0"
         id="stop5213-8-5-0" />
      <stop
         id="stop5298-4-5-1"
         offset="0.60000002"
         style="stop-color:#d3d7cf;stop-opacity:1" />
      <stop
         style="stop-color:#eeeeec;stop-opacity:1"
         offset="1"
         id="stop5215-7-2-1" />
    </linearGradient>
    <linearGradient
       id="linearGradient5211-7-0-7-9-4">
      <stop
         style="stop-color:#ffffff;stop-opacity:1"
         offset="0"
         id="stop5213-8-5-0-4-3" />
      <stop
         id="stop5298-4-5-1-7-8"
         offset="0.60000002"
         style="stop-color:#d3d7cf;stop-opacity:1" />
      <stop
         style="stop-color:#eeeeec;stop-opacity:1"
         offset="1"
         id="stop5215-7-2-1-9-3" />
    </linearGradient>
    <linearGradient
       id="linearGradient6465-0-4">
      <stop
         style="stop-color:#f0f0ee;stop-opacity:1"
         offset="0"
         id="stop6467-9-5" />
      <stop
         style="stop-color:#2e3436;stop-opacity:1"
         offset="1"
         id="stop6469-8-2" />
    </linearGradient>
    <inkscape:perspective
       id="perspective2921"
       inkscape:persp3d-origin="0.5 : 0.33333333 : 1"
       inkscape:vp_z="1 : 0.5 : 1"
       inkscape:vp_y="0 : 1000 : 0"
       inkscape:vp_x="0 : 0.5 : 1"
       sodipodi:type="inkscape:persp3d" />
    <inkscape:perspective
       id="perspective3359"
       inkscape:persp3d-origin="0.5 : 0.33333333 : 1"
       inkscape:vp_z="1 : 0.5 : 1"
       inkscape:vp_y="0 : 1000 : 0"
       inkscape:vp_x="0 : 0.5 : 1"
       sodipodi:type="inkscape:persp3d" />
    <inkscape:perspective
       id="perspective3400"
       inkscape:persp3d-origin="0.5 : 0.33333333 : 1"
       inkscape:vp_z="1 : 0.5 : 1"
       inkscape:vp_y="0 : 1000 : 0"
       inkscape:vp_x="0 : 0.5 : 1"
       sodipodi:type="inkscape:persp3d" />
    <inkscape:perspective
       id="perspective4208"
       inkscape:persp3d-origin="0.5 : 0.33333333 : 1"
       inkscape:vp_z="1 : 0.5 : 1"
       inkscape:vp_y="0 : 1000 : 0"
       inkscape:vp_x="0 : 0.5 : 1"
       sodipodi:type="inkscape:persp3d" />
    <inkscape:perspective
       id="perspective4249"
       inkscape:persp3d-origin="0.5 : 0.33333333 : 1"
       inkscape:vp_z="1 : 0.5 : 1"
       inkscape:vp_y="0 : 1000 : 0"
       inkscape:vp_x="0 : 0.5 : 1"
       sodipodi:type="inkscape:persp3d" />
    <inkscape:perspective
       id="perspective4271"
       inkscape:persp3d-origin="0.5 : 0.33333333 : 1"
       inkscape:vp_z="1 : 0.5 : 1"
       inkscape:vp_y="0 : 1000 : 0"
       inkscape:vp_x="0 : 0.5 : 1"
       sodipodi:type="inkscape:persp3d" />
    <inkscape:perspective
       id="perspective4271-7"
       inkscape:persp3d-origin="0.5 : 0.33333333 : 1"
       inkscape:vp_z="1 : 0.5 : 1"
       inkscape:vp_y="0 : 1000 : 0"
       inkscape:vp_x="0 : 0.5 : 1"
       sodipodi:type="inkscape:persp3d" />
    <inkscape:perspective
       id="perspective2942"
       inkscape:persp3d-origin="0.5 : 0.33333333 : 1"
       inkscape:vp_z="1 : 0.5 : 1"
       inkscape:vp_y="0 : 1000 : 0"
       inkscape:vp_x="0 : 0.5 : 1"
       sodipodi:type="inkscape:persp3d" />
    <inkscape:perspective
       id="perspective4332"
       inkscape:persp3d-origin="0.5 : 0.33333333 : 1"
       inkscape:vp_z="1 : 0.5 : 1"
       inkscape:vp_y="0 : 1000 : 0"
       inkscape:vp_x="0 : 0.5 : 1"
       sodipodi:type="inkscape:persp3d" />
    <inkscape:perspective
       id="perspective4402"
       inkscape:persp3d-origin="0.5 : 0.33333333 : 1"
       inkscape:vp_z="1 : 0.5 : 1"
       inkscape:vp_y="0 : 1000 : 0"
       inkscape:vp_x="0 : 0.5 : 1"
       sodipodi:type="inkscape:persp3d" />
  </defs>
  <metadata
     id="metadata4">
    <rdf:RDF>
      <cc:Work
         rdf:about="">
        <dc:format>image/svg+xml</dc:format>
        <dc:type
           rdf:resource="http://purl.org/dc/dcmitype/StillImage" />
        <dc:creator>
          <cc:Agent>
            <dc:title>Lapo Calamandrei</dc:title>
          </cc:Agent>
        </dc:creator>
        <dc:source />
        <cc:license
           rdf:resource="" />
        <dc:title>Firewall</dc:title>
        <dc:subject>
          <rdf:Bag />
        </dc:subject>
        <dc:date />
        <dc:rights>
          <cc:Agent>
            <dc:title />
          </cc:Agent>
        </dc:rights>
        <dc:publisher>
          <cc:Agent>
            <dc:title />
          </cc:Agent>
        </dc:publisher>
        <dc:identifier />
        <dc:relation />
        <dc:language />
        <dc:coverage />
        <dc:description />
        <dc:contributor>
          <cc:Agent>
            <dc:title />
          </cc:Agent>
        </dc:contributor>
      </cc:Work>
      <cc:Work
         rdf:about="">
        <dc:format>image/svg+xml</dc:format>
        <dc:type
           rdf:resource="http://purl.org/dc/dcmitype/StillImage" />
      </cc:Work>
    </rdf:RDF>
  </metadata>
  <g
     style="display:inline"
     inkscape:groupmode="layer"
     inkscape:label="xfce4-panel-menu"
     id="layer1">
    <g
       inkscape:groupmode="layer"
       id="layer2"
       inkscape:label="baseplate"
       style="display:none"
       sodipodi:insensitive="true">
      <rect
         style="display:inline;overflow:visible;visibility:visible;fill:#eeeeec;fill-opacity:1;fill-rule:nonzero;stroke:none;stroke-width:2;marker:none;enable-background:accumulate"
         id="rect6284"
         width="48"
         height="48"
         x="296.0625"
         y="51.99633"
         inkscape:label="48x48" />
      <rect
         inkscape:label="32x32"
         y="127.99634"
         x="303"
         height="32"
         width="32"
         id="rect6592"
         style="display:inline;overflow:visible;visibility:visible;fill:#eeeeec;fill-opacity:1;fill-rule:nonzero;stroke:none;stroke-width:2;marker:none;enable-background:accumulate" />
      <rect
         inkscape:label="24x24"
         y="178"
         x="302"
         height="24"
         width="24"
         id="rect5028"
         style="display:inline;overflow:visible;visibility:visible;fill:#ffffff;fill-opacity:1;fill-rule:nonzero;stroke:none;stroke-width:2;marker:none;enable-background:accumulate" />
      <rect
         inkscape:label="16x16"
         y="221"
         x="303"
         height="16"
         width="16"
         id="rect6833"
         style="display:inline;overflow:visible;visibility:visible;fill:#eeeeec;fill-opacity:1;fill-rule:nonzero;stroke:none;stroke-width:2;marker:none;enable-background:accumulate" />
      <rect
         style="display:inline;overflow:visible;visibility:visible;fill:#eeeeec;fill-opacity:1;fill-rule:nonzero;stroke:none;stroke-width:2;marker:none;enable-background:accumulate"
         id="rect6749"
         width="22"
         height="22"
         x="303"
         y="179.05884"
         inkscape:label="22x22" />
      <text
         id="context"
         inkscape:label="context"
         style="font-style:normal;font-weight:normal;font-size:18.30070686px;font-family:'Bitstream Vera Sans';display:inline;fill:#000000;fill-opacity:1;stroke:none;enable-background:new"
         x="31.87059"
         xml:space="preserve"
         y="18.860306"><tspan
           id="tspan2716"
           sodipodi:role="line"
           x="31.87059"
           y="18.860306">apps</tspan></text>
      <text
         id="icon-name"
         inkscape:label="icon-name"
         sodipodi:linespacing="125%"
         style="font-style:normal;font-variant:normal;font-weight:bold;font-stretch:normal;font-size:18.30070686px;line-height:125%;font-family:'Droid Sans';-inkscape-font-specification:'Droid Sans Bold';text-align:start;writing-mode:lr-tb;text-anchor:start;display:inline;fill:#000000;fill-opacity:1;stroke:none;enable-background:new"
         x="302.87057"
         xml:space="preserve"
         y="18.860306"><tspan
           id="tspan3023"
           sodipodi:role="line"
           x="302.87057"
           y="18.860306">xfce4-panel-menu</tspan></text>
    </g>
    <g
       inkscape:groupmode="layer"
       id="layer4"
       inkscape:label="smallsizes"
       style="display:inline">
      <g
         id="g6154"
         style="fill:#ffffff"
         transform="matrix(1.25,0,0,1.25,-78,-47.25)" />
      <path
         style="display:inline;fill:#294172;fill-opacity:1;enable-background:new"
         id="path2438"
         d="M 344.0013,76.001 C 344.0013,62.745826 333.25581,52 320.00064,52 c -13.2492,0 -23.99049,10.736865 -23.9999,23.984072 L 296,75.983439 l 0,18.572931 7.4e-4,7.4e-4 c 0.007,3.0079 2.44662,5.44289 5.45639,5.44289 0.009,0 0.0169,-7.4e-4 0.0259,-7.4e-4 l 0.001,7.4e-4 18.5258,0 0,0 c 13.25075,-0.005 23.99104,-10.747263 23.99104,-23.999006 z"
         inkscape:connector-curvature="0" />
      <g
         style="display:inline;enable-background:new"
         id="g3388"
         transform="matrix(0.97852237,0,0,0.97852237,6.83939,1.665769)" />
      <path
         style="display:inline;fill:#294172;fill-opacity:1;enable-background:new"
         id="path2438-1"
         d="m 319.0004,228.50031 c 0,-4.14224 -3.35796,-7.50031 -7.5002,-7.50031 -4.14038,0 -7.49704,3.35527 -7.49997,7.49503 l -2.3e-4,-2e-4 0,5.80404 2.3e-4,2.3e-4 c 0.002,0.93996 0.76456,1.7009 1.70512,1.7009 0.003,0 0.006,-2.3e-4 0.008,-2.3e-4 l 3.1e-4,2.3e-4 5.78931,0 0,0 c 4.14087,-0.002 7.4972,-3.35851 7.4972,-7.49969 z"
         inkscape:connector-curvature="0" />
      <path
         style="display:inline;fill:#294172;fill-opacity:1;enable-background:new"
         id="path2438-8"
         d="m 325.00056,189.50044 c 0,-5.79913 -4.70114,-10.50044 -10.50028,-10.50044 -5.79652,0 -10.49583,4.69738 -10.49996,10.49303 l -3.2e-4,-2.7e-4 0,8.12565 3.2e-4,3.3e-4 c 0.003,1.31595 1.07041,2.38126 2.38718,2.38126 0.004,0 0.008,-3.2e-4 0.0114,-3.2e-4 l 4.4e-4,3.2e-4 8.10503,0 0,0 c 5.7972,-0.002 10.49608,-4.70193 10.49608,-10.49956 z"
         inkscape:connector-curvature="0" />
      <path
         style="display:inline;fill:#294172;fill-opacity:1;enable-background:new"
         id="path2438-7"
         d="M 335,143.50065 C 335,134.94002 328.0604,128 319.49999,128 c -8.55654,0 -15.49343,6.93422 -15.49951,15.48971 L 304,143.4893 l 0,11.99502 4.8e-4,4.9e-4 c 0.005,1.94259 1.58007,3.51519 3.52383,3.51519 0.006,0 0.0109,-4.8e-4 0.0167,-4.8e-4 l 6.5e-4,4.8e-4 11.96425,0 0,0 c 8.55755,-0.003 15.4938,-6.94094 15.4938,-15.49936 z"
         inkscape:connector-curvature="0" />
      <g
         transform="matrix(0.49137741,0,0,0.49137741,89.455619,-69.585189)"
         id="g3136"
         inkscape:label="Layer 1">
        <g
           transform="matrix(1.0631936,0,0,1.0631936,116.28057,369.03392)"
           id="g3138" />
      </g>
      <path
         style="display:inline;opacity:1;fill:#ffffff;fill-opacity:1;fill-rule:nonzero;stroke:none;stroke-opacity:1;enable-background:new"
         d="m 313.46962,228.93508 c -0.51953,0.27344 -3.82072,1.26647 -3.684,1.786 0.22656,0.21484 2.13578,-0.66922 2.46,-0.72 -0.0742,0.3125 -1.745,1.44472 -1.495,1.683 0.52734,-0.0195 1.84206,-0.79703 2.303,-0.965 -0.87891,0.65625 -1.61069,1.59537 -1.556,1.736 0.51562,0.5 3.00059,-2.764 2.692,-2.764 -0.0664,-0.0742 -1.78779,0.88138 -2.137,1.2 0.38672,-0.39063 1.36231,-1.52631 1.417,-1.956 z m 1.407,-5.712 c 0.28516,0.17188 -0.13431,1.94778 -0.064,2.397 0.2461,-0.64844 0.90078,-2.13547 1.225,-2.03 0.16406,0.47265 -0.24018,1.996 -0.248,2.496 0.45703,-1.04688 1.16506,-2.35378 1.251,-2.303 0.65625,0.24219 -1.56859,3.92869 -1.76,3.749 -0.0859,-0.0156 0.10384,-1.91272 0.264,-2.401 -0.19141,0.47656 -0.90016,1.8415 -1.24,2.029 -0.26172,-0.38281 0.0407,-3.8745 0.572,-3.937 z m 1.505,5.128 c 0.28726,0.17125 1.61177,1.50978 0.339,2.546 -0.75943,0.67148 -4.53093,2.51675 -4.774,2.688 -0.67949,0.37013 -4.18433,0.33206 -5.461,-1.28 -1.31477,-1.83406 -0.65954,-3.70046 0.147,-4.96 -0.008,-0.41406 -0.31744,-1.44144 -0.294,-1.668 0.006,-0.82311 0.72246,-1.19062 0.96,-1.163 0.25411,0.0608 0.62808,0.055 1.407,1.994 0.27622,0.44194 0.63577,0.48188 0.575,0.167 -0.39223,-1.16562 -0.8209,-2.91847 0.295,-3.04 0.0508,-0.004 0.17403,-0.0501 0.342,-0.054 0.37109,-0.004 0.8935,0.18406 1.081,1.645 0.0508,0.29297 0.0335,1.20794 0.053,1.497 0.11717,0.23438 2.90031,-0.0126 5.33,1.628 z"
         id="rect3389"
         inkscape:connector-curvature="0"
         sodipodi:nodetypes="cccccccccccccccccccccccccccccccc" />
      <path
         style="display:inline;opacity:1;fill:#ffffff;fill-opacity:1;fill-rule:nonzero;stroke:none;stroke-opacity:1;enable-background:new"
         d="m 317.063,190.06616 c -0.67604,0.35581 -4.97175,1.64801 -4.79384,2.32405 0.29481,0.27956 2.77921,-0.87083 3.2011,-0.93691 -0.0965,0.40665 -2.2707,1.87996 -1.94538,2.19002 0.6862,-0.0254 2.397,-1.03714 2.9968,-1.25571 -1.14369,0.85395 -2.09593,2.07599 -2.02476,2.25898 0.67095,0.65063 3.90455,-3.59668 3.50299,-3.59668 -0.0864,-0.0966 -2.32638,1.14691 -2.78079,1.56151 0.50322,-0.50831 1.77272,-1.98612 1.84388,-2.54526 z m 1.83088,-7.4328 c 0.37107,0.22366 -0.17477,2.53457 -0.0833,3.11912 0.32024,-0.84379 1.17215,-2.7788 1.59404,-2.64156 0.21349,0.61504 -0.31254,2.59732 -0.32271,3.24795 0.59471,-1.36227 1.51605,-3.06288 1.62788,-2.99681 0.85395,0.31516 -2.04115,5.11225 -2.29022,4.87843 -0.11178,-0.0203 0.13512,-2.48895 0.34353,-3.12433 -0.24907,0.62013 -1.17134,2.39627 -1.61356,2.64026 -0.34057,-0.49814 0.053,-5.04173 0.74432,-5.12306 z m 1.95839,6.67286 c 0.37381,0.22284 2.09734,1.96462 0.44113,3.31301 -0.98821,0.87377 -5.89592,3.27495 -6.21222,3.49779 -0.88419,0.48163 -5.4449,0.4321 -7.10618,-1.66561 -1.71086,-2.38659 -0.85823,-4.81527 0.19129,-6.45426 -0.0104,-0.5388 -0.41308,-1.87569 -0.38257,-2.1705 0.008,-1.07108 0.9401,-1.54931 1.24921,-1.51336 0.33066,0.0791 0.81729,0.0716 1.83087,2.59471 0.35943,0.57508 0.8273,0.62705 0.74822,0.21731 -0.51039,-1.51678 -1.0682,-3.79769 0.38388,-3.95583 0.0661,-0.005 0.22645,-0.0652 0.44503,-0.0703 0.48288,-0.005 1.16267,0.23951 1.40666,2.14057 0.0661,0.38123 0.0436,1.57185 0.069,1.94799 0.15247,0.30499 3.77406,-0.0164 6.93571,2.11845 z"
         id="rect3389-6"
         inkscape:connector-curvature="0"
         sodipodi:nodetypes="cccccccccccccccccccccccccccccccc" />
      <path
         style="display:inline;opacity:1;fill:#ffffff;fill-opacity:1;fill-rule:nonzero;stroke:none;stroke-opacity:1;enable-background:new"
         d="m 322.91697,144.25488 c -0.9014,0.47442 -6.62901,2.19734 -6.3918,3.09873 0.39309,0.37275 3.70561,-1.1611 4.26814,-1.24921 -0.12874,0.54219 -3.0276,2.50661 -2.59385,2.92003 0.91494,-0.0338 3.196,-1.38286 3.99574,-1.67429 -1.52492,1.1386 -2.79457,2.76799 -2.69968,3.01199 0.89461,0.8675 5.20606,-4.79558 4.67066,-4.79558 -0.11521,-0.12874 -3.10185,1.5292 -3.70773,2.08201 0.67097,-0.67774 2.36363,-2.64817 2.45852,-3.39368 z m 2.44116,-9.9104 c 0.49476,0.29821 -0.23303,3.37942 -0.11104,4.15883 0.42699,-1.12506 1.56286,-3.70507 2.12539,-3.52208 0.28465,0.82005 -0.41671,3.46308 -0.43028,4.33059 0.79295,-1.81635 2.02139,-4.08384 2.1705,-3.99574 1.1386,0.42021 -2.72153,6.81634 -3.05362,6.50457 -0.14904,-0.0271 0.18016,-3.31859 0.45804,-4.16577 -0.3321,0.82684 -1.56179,3.19503 -2.15142,3.52035 -0.45409,-0.66418 0.0706,-6.72231 0.99243,-6.83075 z m 2.6112,8.89715 c 0.4984,0.29712 2.79644,2.61949 0.58817,4.41734 -1.31763,1.16503 -7.86123,4.3666 -8.28296,4.66372 -1.17893,0.64218 -7.25987,0.57613 -9.47491,-2.22082 -2.28115,-3.18212 -1.14431,-6.42035 0.25505,-8.60567 -0.0139,-0.7184 -0.55077,-2.50091 -0.5101,-2.894 0.0104,-1.42811 1.25348,-2.06574 1.66561,-2.01782 0.44089,0.10549 1.08973,0.0954 2.44117,3.45962 0.47924,0.76677 1.10307,0.83607 0.99763,0.28975 -0.68052,-2.02237 -1.42427,-5.06359 0.51183,-5.27445 0.0881,-0.007 0.30195,-0.0869 0.59338,-0.0937 0.64384,-0.007 1.55023,0.31935 1.87555,2.8541 0.0881,0.50831 0.0581,2.09579 0.0919,2.59732 0.20329,0.40665 5.03208,-0.0219 9.24763,2.8246 z"
         id="rect3389-0"
         inkscape:connector-curvature="0"
         sodipodi:nodetypes="cccccccccccccccccccccccccccccccc" />
      <path
         style="display:inline;opacity:1;fill:#ffffff;fill-opacity:1;fill-rule:nonzero;stroke:none;stroke-opacity:1;enable-background:new"
         d="m 325.1261,77.13232 c -1.35209,0.711633 -9.94351,3.296007 -9.58769,4.648095 0.58963,0.559125 5.55841,-1.741659 6.4022,-1.873815 -0.19311,0.813287 -4.5414,3.759914 -3.89077,4.380042 1.37242,-0.05075 4.794,-2.074287 5.99361,-2.511432 -2.28738,1.707904 -4.19186,4.151983 -4.04952,4.517976 1.34191,1.30126 7.80909,-7.193368 7.00598,-7.193368 -0.17281,-0.193107 -4.65276,2.29381 -5.56159,3.123025 1.00645,-1.016623 3.54545,-3.972254 3.68778,-5.090523 z m 3.66174,-14.865599 c 0.74214,0.447321 -0.34954,5.069138 -0.16656,6.238242 0.64048,-1.687578 2.3443,-5.557605 3.18809,-5.283117 0.42697,1.230081 -0.62507,5.194632 -0.64542,6.495892 1.18943,-2.724527 3.03209,-6.125762 3.25575,-5.993606 1.7079,0.630305 -4.08229,10.224498 -4.58044,9.756851 -0.22355,-0.0406 0.27025,-4.977894 0.68707,-6.248652 -0.49815,1.240257 -2.34269,4.792542 -3.22713,5.280514 -0.68113,-0.996271 0.10592,-10.083467 1.48864,-10.246124 z m 3.9168,13.345727 c 0.7476,0.445682 4.19466,3.929226 0.88225,6.62601 -1.97643,1.747541 -11.79184,6.549895 -12.42443,6.995576 -1.76839,0.963271 -10.88981,0.864194 -14.21237,-3.331226 -3.42172,-4.77318 -1.71647,-9.630517 0.38257,-12.908496 -0.0208,-1.0776 -0.82614,-3.751378 -0.76514,-4.341005 0.0156,-2.142161 1.88022,-3.098613 2.49842,-3.026732 0.66133,0.158233 1.63459,0.143139 3.66175,5.189427 0.71887,1.150158 1.6546,1.254103 1.49645,0.434621 -1.02079,-3.033551 -2.13641,-7.595379 0.76774,-7.911664 0.13221,-0.01041 0.45292,-0.130386 0.89006,-0.140536 0.96577,-0.01041 2.32536,0.47902 2.81333,4.281147 0.13221,0.762461 0.0872,3.143689 0.13793,3.895974 0.30494,0.609979 7.54812,-0.03279 13.87144,4.236904 z"
         id="rect3389-8"
         inkscape:connector-curvature="0"
         sodipodi:nodetypes="cccccccccccccccccccccccccccccccc" />
    </g>
  </g>
</svg>
