<?xml version="1.0" encoding="UTF-8" standalone="no"?>
<svg
   xmlns:dc="http://purl.org/dc/elements/1.1/"
   xmlns:cc="http://web.resource.org/cc/"
   xmlns:rdf="http://www.w3.org/1999/02/22-rdf-syntax-ns#"
   xmlns:svg="http://www.w3.org/2000/svg"
   xmlns="http://www.w3.org/2000/svg"
   xmlns:xlink="http://www.w3.org/1999/xlink"
   xmlns:sodipodi="http://sodipodi.sourceforge.net/DTD/sodipodi-0.dtd"
   xmlns:inkscape="http://www.inkscape.org/namespaces/inkscape"
   width="48"
   height="48"
   id="svg2"
   sodipodi:version="0.32"
   inkscape:version="0.45.1"
   sodipodi:docname="Debian-logo.svg"
   sodipodi:docbase="/home/mark/Projects/Tango Icons/menu icons/debian"
   inkscape:output_extension="org.inkscape.output.svg.inkscape"
   version="1.0">
  <metadata
     id="metadata47">
    <rdf:RDF>
      <cc:Work
         rdf:about="">
        <dc:format>image/svg+xml</dc:format>
        <dc:type
           rdf:resource="http://purl.org/dc/dcmitype/StillImage" />
      </cc:Work>
    </rdf:RDF>
  </metadata>
  <defs
     id="defs45">
    <linearGradient
       inkscape:collect="always"
       id="linearGradient3229">
      <stop
         style="stop-color:#2e3436;stop-opacity:1;"
         offset="0"
         id="stop3231" />
      <stop
         style="stop-color:#2e3436;stop-opacity:0;"
         offset="1"
         id="stop3233" />
    </linearGradient>
    <linearGradient
       id="linearGradient3219">
      <stop
         style="stop-color:#a40000;stop-opacity:1;"
         offset="0"
         id="stop3221" />
      <stop
         style="stop-color:#810000;stop-opacity:1;"
         offset="1"
         id="stop3223" />
    </linearGradient>
    <linearGradient
       id="linearGradient3211">
      <stop
         style="stop-color:#ef2929;stop-opacity:1;"
         offset="0"
         id="stop3213" />
      <stop
         style="stop-color:#f35959;stop-opacity:1;"
         offset="1"
         id="stop3215" />
    </linearGradient>
    <linearGradient
       inkscape:collect="always"
       id="linearGradient3195">
      <stop
         style="stop-color:#eeeeec;stop-opacity:1;"
         offset="0"
         id="stop3197" />
      <stop
         style="stop-color:#eeeeec;stop-opacity:0;"
         offset="1"
         id="stop3199" />
    </linearGradient>
    <linearGradient
       inkscape:collect="always"
       xlink:href="#linearGradient3195"
       id="linearGradient3201"
       x1="17.780533"
       y1="-7.7719212"
       x2="28.903069"
       y2="44.502907"
       gradientUnits="userSpaceOnUse" />
    <linearGradient
       inkscape:collect="always"
       xlink:href="#linearGradient3211"
       id="linearGradient3217"
       x1="26.073368"
       y1="47.744698"
       x2="10.710525"
       y2="-3.7971688e-09"
       gradientUnits="userSpaceOnUse" />
    <linearGradient
       inkscape:collect="always"
       xlink:href="#linearGradient3219"
       id="linearGradient3225"
       x1="10.710525"
       y1="-3.7971688e-09"
       x2="26.073368"
       y2="47.744698"
       gradientUnits="userSpaceOnUse" />
    <radialGradient
       inkscape:collect="always"
       xlink:href="#linearGradient3229"
       id="radialGradient3235"
       cx="25.102291"
       cy="41.547649"
       fx="25.102291"
       fy="41.547649"
       r="23.688078"
       gradientTransform="matrix(1,0,0,0.2574627,0,30.85068)"
       gradientUnits="userSpaceOnUse" />
  </defs>
  <sodipodi:namedview
     inkscape:window-height="953"
     inkscape:window-width="1280"
     inkscape:pageshadow="2"
     inkscape:pageopacity="0.0"
     guidetolerance="10.0"
     gridtolerance="10.0"
     objecttolerance="10.0"
     borderopacity="1.0"
     bordercolor="#666666"
     pagecolor="#ffffff"
     id="base"
     width="48px"
     height="48px"
     showguides="true"
     inkscape:guide-bbox="true"
     showgrid="true"
     inkscape:zoom="1"
     inkscape:cx="-12.483318"
     inkscape:cy="254.99344"
     inkscape:window-x="0"
     inkscape:window-y="45"
     inkscape:current-layer="g4" />
  <g
     id="g4"
     style="fill:#d62766">
    <path
       sodipodi:type="arc"
       style="opacity:0.36315789;fill:url(#radialGradient3235);fill-opacity:1;stroke:none;stroke-width:1.5;stroke-miterlimit:4;stroke-dasharray:none;stroke-opacity:1"
       id="path3227"
       sodipodi:cx="25.102291"
       sodipodi:cy="41.547649"
       sodipodi:rx="23.688078"
       sodipodi:ry="6.0987959"
       d="M 48.790369 41.547649 A 23.688078 6.0987959 0 1 1  1.4142132,41.547649 A 23.688078 6.0987959 0 1 1  48.790369 41.547649 z"
       transform="matrix(0.8443066,0,0,0.7908483,3.8059706,9.9653329)" />
    <path
       style="fill:url(#linearGradient3217);fill-opacity:1.0;fill-rule:evenodd;stroke:url(#linearGradient3225);stroke-width:1.00000012px;stroke-linecap:butt;stroke-linejoin:miter;stroke-opacity:1"
       d="M 24.736506,0.5070736 C 21.792202,0.4159902 18.348307,1.2046608 15.750453,2.8662088 C 11.037823,5.8803358 8.4840699,9.323699 7.2663179,12.728222 C 6.0485659,16.132745 5.5337369,20.640758 6.1547849,26.776296 C 6.5830999,31.007761 9.6723079,35.948932 12.923047,39.464755 C 16.173786,42.980578 21.199942,45.165618 25.75333,44.729661 L 25.65958,43.729661 C 21.515921,44.126389 18.425678,41.07173 15.318707,37.711399 C 12.211736,34.351068 9.6708029,30.322498 9.2706329,26.369087 C 8.6523579,20.260937 9.0640169,16.569831 10.74274,13.698891 C 12.638582,10.456636 14.366473,8.812677 18.005728,6.8445491 C 21.414453,5.0010937 25.060796,4.5429313 28.677842,5.4868524 C 32.294888,6.4307735 33.667136,6.9665412 36.071758,12.086052 C 36.74304,13.51523 36.552689,13.919981 36.810555,15.889747 C 36.986242,17.231775 37.139538,18.253781 36.780744,19.54312 C 35.867807,22.823792 35.312663,24.636462 30.330736,26.820534 C 27.982945,27.849803 25.951823,26.976596 24.206215,25.664284 C 23.333411,25.008128 23.279025,24.939409 22.723998,24.244567 C 22.168971,23.549725 21.637475,22.891974 21.536019,22.619567 C 20.732922,20.463279 20.954284,18.818626 21.473998,17.416681 C 21.993712,16.014736 22.447401,15.475113 23.612945,14.746485 C 24.778489,14.017857 26.189024,13.715748 27.28506,13.69985 C 28.381096,13.683952 30.887548,14.354152 31.196584,14.888309 L 30.19083,13.604661 C 29.621855,12.621211 28.404464,12.210697 27.09708,12.229661 C 25.789696,12.248625 24.324325,12.293281 23.00333,13.119087 C 21.682335,13.944893 20.517233,15.559247 19.90958,17.198411 C 19.301927,18.837575 18.787143,20.891062 19.658141,23.229661 C 19.837629,23.71158 20.557926,24.743871 21.1591,25.496485 C 21.760274,26.249099 22.753369,27.271826 23.65958,28.050858 C 25.459179,29.5979 28.104849,30.36888 30.862465,29.215714 C 35.587626,27.239769 38.747414,23.734718 40.257166,20.420038 C 40.735468,19.36992 41.58125,17.936573 41.493699,14.88687 C 41.450514,13.42617 40.11508,10.205176 39.657629,9.4200856 C 36.707549,4.3570789 32.600654,2.246608 28.692748,1.2267826 C 27.715771,0.9718262 25.717941,0.5374347 24.736506,0.5070736 z "
       id="path2215"
       sodipodi:nodetypes="cssssccsssssssssssssssccsssssssssssc" />
    <path
       style="fill:none;fill-opacity:1;fill-rule:evenodd;stroke:url(#linearGradient3201);stroke-width:1.00000012px;stroke-linecap:butt;stroke-linejoin:miter;stroke-opacity:1;opacity:0.69473684"
       d="M 24.4344,1.459697 C 21.490096,1.368614 18.576531,2.2456724 15.978677,3.9072204 C 11.266047,6.9213473 9.4194012,9.2156628 8.2016492,12.620186 C 6.9838969,16.024709 6.1155145,20.09078 6.7365625,26.226318 C 7.1648778,30.457784 9.546979,34.249906 12.797718,37.765729 C 16.048457,41.281552 18.599739,43.113039 22.976351,44.002907 L 22.970989,43.886791 C 18.473777,43.222859 17.151301,41.052083 14.04433,37.691752 C 10.937359,34.331421 8.5732022,30.037685 8.1730322,26.084274 C 7.5547572,19.976124 8.3199696,15.931465 9.9986926,13.060525 C 11.894535,9.8182696 13.799202,7.9091457 17.438457,5.9410177 C 20.847182,4.0975617 25.023855,3.5510113 28.640901,4.4949323 C 32.257947,5.4388533 34.248914,6.4165631 36.653536,11.536074 C 37.324818,12.965252 37.576409,13.635168 37.834275,15.604934 C 38.009962,16.946962 37.986481,19.118017 37.627687,20.407356 C 36.71475,23.688028 35.187334,25.765863 30.205407,27.949935 C 27.857616,28.979204 25.296164,27.575666 23.550556,26.263354 C 22.677752,25.607198 21.916259,24.742984 21.361232,24.048142 C 20.806205,23.3533 20.363098,22.607161 20.261642,22.334754 C 19.458545,20.178466 20.56379,18.533813 21.083504,17.131868 C 21.603218,15.729923 22.056907,15.1903 23.222451,14.461672 C 24.387995,13.733044 25.79853,13.430935 26.894566,13.415037 C 27.990602,13.399139 28.640899,12.831902 28.949935,13.366059 L 27.502239,13.054683 C 26.933264,12.071233 27.572028,13.340098 26.264644,13.359062 C 24.95726,13.378026 24.906103,13.157517 23.585108,13.983323 C 22.264113,14.809129 21.275788,15.362822 20.668135,17.001986 C 20.060482,18.64115 19.545698,20.164307 20.416696,22.502906 C 20.596184,22.984825 21.051315,23.928728 21.652489,24.681342 C 22.253663,25.433956 23.15837,26.368295 24.064581,27.147327 C 25.86418,28.694369 28.333073,29.288572 31.090689,28.135406 C 35.81585,26.159461 37.738202,23.361517 39.247954,20.046837 C 39.726256,18.996719 40.483649,18.093702 40.396098,15.043999 C 40.352913,13.583299 39.459421,10.981023 39.00197,10.195932 C 36.05189,5.1329263 32.828878,3.2876204 28.920972,2.2677944 C 27.943995,2.0128384 25.415835,1.490058 24.4344,1.459697 z "
       id="path2222"
       sodipodi:nodetypes="cssssccsssssssssssssssccsssssssssssc" />
  </g>
</svg>
