<?xml version="1.0" encoding="UTF-8" standalone="no"?>
<svg
   xmlns:dc="http://purl.org/dc/elements/1.1/"
   xmlns:cc="http://creativecommons.org/ns#"
   xmlns:rdf="http://www.w3.org/1999/02/22-rdf-syntax-ns#"
   xmlns:svg="http://www.w3.org/2000/svg"
   xmlns="http://www.w3.org/2000/svg"
   xmlns:sodipodi="http://sodipodi.sourceforge.net/DTD/sodipodi-0.dtd"
   xmlns:inkscape="http://www.inkscape.org/namespaces/inkscape"
   width="16"
   height="16"
   version="1.1"
   id="svg2"
   inkscape:version="0.91 r13725"
   sodipodi:docname="shutter-symbolic.svg">
  <defs
     id="defs10" />
  <sodipodi:namedview
     pagecolor="#353535"
     bordercolor="#666666"
     borderopacity="1"
     objecttolerance="10"
     gridtolerance="10"
     guidetolerance="10"
     inkscape:pageopacity="0.63529412"
     inkscape:pageshadow="2"
     inkscape:window-width="960"
     inkscape:window-height="1016"
     id="namedview8"
     showgrid="false"
     fit-margin-top="0"
     fit-margin-left="0"
     fit-margin-right="0"
     fit-margin-bottom="0"
     inkscape:zoom="50.125"
     inkscape:cx="8"
     inkscape:cy="8"
     inkscape:window-x="0"
     inkscape:window-y="27"
     inkscape:window-maximized="0"
     inkscape:current-layer="layer1"
     inkscape:showpageshadow="false" />
  <metadata
     id="metadata3401">
    <rdf:RDF>
      <cc:Work
         rdf:about="">
        <dc:format>image/svg+xml</dc:format>
        <dc:type
           rdf:resource="http://purl.org/dc/dcmitype/StillImage" />
        <dc:title></dc:title>
      </cc:Work>
    </rdf:RDF>
  </metadata>
  <g
     id="layer1"
     inkscape:label="Layer 1"
     inkscape:groupmode="layer"
     transform="translate(-5.1075067,2.9980004)">
    <path
       id="path3918"
       d="m 18.454637,-3.0009405 c -1.97367,0.0295 -5.73941,0.85776 -6.74999,2.25000003 -0.71194,1.20649001 -0.4664,5.72927997 -0.28125,5.43749997 1.52603,-2.40476 5.35708,-5.53796997 7.68749,-6.84375 1.08024,-0.60527 0.52796,-0.86143 -0.65625,-0.84375 z m -8.56249,2.68750003 c -0.52117,0.0888 -2.60717,1.53169997 -2.125,4.12499997 0.45775,1.32398 3.38195,3.08057 3.28125,2.75 -0.83292,-2.73425 -1.12504,-4.51182 -1.03125,-6.84374997 0.002,-0.0432 -0.0505,-0.0439 -0.125,-0.0312 z m 6.6875,1.68749997 c -1.39724,0.10081 -3.8766,2.48079 -3.53125,2.46875 2.85657,-0.0996 4.64614,0.0892 6.87499,0.78125 0.33002,0.10247 -0.33812,-3.01804 -3.34374,-3.25 z m -10.125,2.78125 c -0.27981,0.14749 -0.77373,2.93197 1.65625,4.375 1.29737,0.5285 4.53371,-0.51408 4.21875,-0.65625 -2.60519,-1.17598 -4.12072,-2.11109 -5.8125,-3.71875 -0.0157,-0.0149 -0.0439,-0.01 -0.0625,0 z m 8.03125,0.15625 c -0.0738,0.004 -0.0872,0.0271 -0.0625,0.0625 1.63357,2.3455 2.43447,3.93978 3.06249,6.1875005 0.093,0.33282 2.34221,-1.9119105 0.90625,-4.5625005 -0.73745,-0.97912 -3.38988,-1.71407 -3.90624,-1.6875 z m 0.625,2.125 c -0.0163,-0.004 -0.0258,0.0104 -0.0312,0.0312 -0.72156,2.76573 -1.41818,4.4371605 -2.71875,6.3750005 -0.19257,0.28693 2.98063,0.50125 4.0625,-2.3125 0.28407,-1.2822405 -1.06874,-4.0310305 -1.3125,-4.0937505 z m -1.03125,1.3125 c -2.57851,1.23336 -4.2741,1.80569 -6.59375,2.0625 -0.34346,0.038 1.52731,2.5828305 4.375,1.5937505 1.24041,-0.65104 2.53049,-3.8053605 2.21875,-3.6562505 z"
       inkscape:connector-curvature="0"
       style="opacity:1;stroke-width:25;fill:#bebebe;fill-opacity:1" />
  </g>
</svg>
