<?xml version="1.0" encoding="UTF-8" standalone="no"?>
<!-- Created with Inkscape (http://www.inkscape.org/) -->

<svg
   xmlns:dc="http://purl.org/dc/elements/1.1/"
   xmlns:cc="http://creativecommons.org/ns#"
   xmlns:rdf="http://www.w3.org/1999/02/22-rdf-syntax-ns#"
   xmlns:svg="http://www.w3.org/2000/svg"
   xmlns="http://www.w3.org/2000/svg"
   xmlns:xlink="http://www.w3.org/1999/xlink"
   xmlns:sodipodi="http://sodipodi.sourceforge.net/DTD/sodipodi-0.dtd"
   xmlns:inkscape="http://www.inkscape.org/namespaces/inkscape"
   version="1.0"
   width="16.000078"
   height="16"
   id="svg4431"
   inkscape:version="0.91 r13725"
   sodipodi:docname="skype-symbolic.svg">
  <sodipodi:namedview
     pagecolor="#353535"
     bordercolor="#666666"
     borderopacity="1"
     objecttolerance="10"
     gridtolerance="10"
     guidetolerance="10"
     inkscape:pageopacity="0.63529412"
     inkscape:pageshadow="2"
     inkscape:window-width="1920"
     inkscape:window-height="1016"
     id="namedview16"
     showgrid="false"
     inkscape:zoom="32.3"
     inkscape:cx="10.304141"
     inkscape:cy="11.733097"
     inkscape:window-x="0"
     inkscape:window-y="27"
     inkscape:window-maximized="1"
     inkscape:current-layer="svg4431"
     inkscape:showpageshadow="false"
     fit-margin-top="0"
     fit-margin-left="0"
     fit-margin-right="0"
     fit-margin-bottom="0" />
  <metadata
     id="metadata16">
    <rdf:RDF>
      <cc:Work
         rdf:about="">
        <dc:format>image/svg+xml</dc:format>
        <dc:type
           rdf:resource="http://purl.org/dc/dcmitype/StillImage" />
        <dc:title></dc:title>
      </cc:Work>
    </rdf:RDF>
  </metadata>
  <defs
     id="defs4433">
    <linearGradient
       x1="50.925655"
       y1="11.648451"
       x2="73.986542"
       y2="11.648451"
       id="linearGradient2390"
       xlink:href="#linearGradient3678"
       gradientUnits="userSpaceOnUse"
       gradientTransform="matrix(0,0.7805424,-0.7617909,0,28.873684,-37.749634)" />
    <linearGradient
       x1="9"
       y1="3"
       x2="9"
       y2="21"
       id="linearGradient2393"
       xlink:href="#linearGradient3678"
       gradientUnits="userSpaceOnUse"
       gradientTransform="translate(-2,-1)" />
    <linearGradient
       x1="15"
       y1="8"
       x2="15"
       y2="20"
       id="linearGradient3692"
       xlink:href="#linearGradient3678"
       gradientUnits="userSpaceOnUse" />
    <linearGradient
       x1="9.1701241"
       y1="3"
       x2="9.311203"
       y2="15"
       id="linearGradient3684"
       xlink:href="#linearGradient3678"
       gradientUnits="userSpaceOnUse" />
    <linearGradient
       id="linearGradient3678">
      <stop
         id="stop3680"
         style="stop-color:#ffffff;stop-opacity:1"
         offset="0" />
      <stop
         id="stop3682"
         style="stop-color:#e6e6e6;stop-opacity:1"
         offset="1" />
    </linearGradient>
    <linearGradient
       x1="9.1701241"
       y1="3"
       x2="9.311203"
       y2="15"
       id="linearGradient3640"
       xlink:href="#linearGradient3678"
       gradientUnits="userSpaceOnUse"
       gradientTransform="translate(-22.566265,-7.7349402)" />
    <linearGradient
       x1="15"
       y1="8"
       x2="15"
       y2="20"
       id="linearGradient3643"
       xlink:href="#linearGradient3678"
       gradientUnits="userSpaceOnUse"
       gradientTransform="translate(-22.566265,-7.7349402)" />
    <linearGradient
       id="linearGradient3820-7-2-1">
      <stop
         id="stop3822-2-6-3"
         style="stop-color:#3d3d3d;stop-opacity:1"
         offset="0" />
      <stop
         id="stop3864-8-7-7"
         style="stop-color:#686868;stop-opacity:0.49803922"
         offset="0.5" />
      <stop
         id="stop3824-1-2-5"
         style="stop-color:#686868;stop-opacity:0"
         offset="1" />
    </linearGradient>
    <radialGradient
       cx="23.896"
       cy="3.99"
       r="20.396999"
       id="radialGradient3093-0-3-6-3"
       gradientUnits="userSpaceOnUse"
       gradientTransform="matrix(0,1.2316483,-1.625754,0,18.486966,-28.721977)">
      <stop
         id="stop3244-9-33-7-0-6"
         style="stop-color:#44ccff;stop-opacity:1;"
         offset="0" />
      <stop
         id="stop3248-1-7-8-8-6"
         style="stop-color:#0c89ff;stop-opacity:1;"
         offset="1" />
      <stop
         id="stop3250-9-3-0-5-2"
         style="stop-color:#0094cb;stop-opacity:1;"
         offset="1" />
    </radialGradient>
    <linearGradient
       id="linearGradient4038">
      <stop
         style="stop-color:#ffffff;stop-opacity:1;"
         offset="0"
         id="stop4040" />
      <stop
         style="stop-color:#ffffff;stop-opacity:0.54591835;"
         offset="1"
         id="stop4042" />
    </linearGradient>
    <clipPath
       id="clipPath18">
      <path
         id="path20"
         d="m 0,841.89 595.276,0 L 595.276,0 0,0 0,841.89 Z"
         inkscape:connector-curvature="0" />
    </clipPath>
    <linearGradient
       spreadMethod="pad"
       gradientTransform="matrix(-1.53e-5,366.70361,366.70361,1.53e-5,298.67236,235.61719)"
       gradientUnits="userSpaceOnUse"
       id="linearGradient36"
       y2="0"
       x2="1"
       y1="0"
       x1="0">
      <stop
         offset="0"
         style="stop-color:#ffffff;stop-opacity:1"
         id="stop38" />
      <stop
         offset="0.80898899"
         style="stop-color:#00aaf1;stop-opacity:1"
         id="stop40" />
      <stop
         offset="1"
         style="stop-color:#00aaf1;stop-opacity:1"
         id="stop42" />
    </linearGradient>
    <clipPath
       id="clipPath50">
      <path
         id="path52"
         d="m 118.089,602.321 349.605,0 0,-227.59 -349.605,0 0,227.59 z"
         inkscape:connector-curvature="0" />
    </clipPath>
    <linearGradient
       spreadMethod="pad"
       gradientTransform="matrix(349.60547,0,0,-349.60547,118.08887,488.52637)"
       gradientUnits="userSpaceOnUse"
       id="linearGradient58"
       y2="0"
       x2="1"
       y1="0"
       x1="0">
      <stop
         offset="0"
         style="stop-color:#ffffff;stop-opacity:1"
         id="stop60" />
      <stop
         offset="1"
         style="stop-color:#00aaf1;stop-opacity:1"
         id="stop62" />
    </linearGradient>
  </defs>
  <path
     style="fill:#bebebe;fill-opacity:1;stroke:none"
     d="m 3.698365,0.00102516 c -1.2940311,0.0058 -2.6573874,0.6670063 -3.17773443,1.86538504 -0.772962,1.4210518 -0.7073919,3.2976926 0.3457031,4.5706818 0.03708,0.312594 -0.088521,0.621084 -0.056641,0.937576 -0.08711,1.986626 0.38539203,4.105161 1.79687503,5.605921 1.671711,1.714039 4.2559215,2.340367 6.6191405,2.048994 0.215935,-0.02661 0.450462,-0.06511 0.591797,0.134776 1.0764878,0.865806 2.7112048,1.140826 3.9453128,0.431675 C 15.076941,14.94077 16.117581,13.57274 15.98938,12.087939 15.93094,11.21927 15.55438,10.396604 15.046021,9.691261 15.482767,7.237732 14.797218,4.5116587 12.905396,2.7707801 11.314724,1.2924818 8.9792012,0.75548396 6.8350842,1.077284 6.6646712,1.0757839 6.4565552,1.1855368 6.3116462,1.1241628 5.6608108,0.40518976 4.685281,-0.02384184 3.698365,0.00102516 Z M 7.9757082,2.8840705 c 0.609423,0 1.146517,0.07415 1.59375,0.220721 0.4498328,0.1476125 0.8289828,0.3465309 1.1269538,0.5918446 0.300059,0.2470505 0.521969,0.5106073 0.662109,0.7852197 0.141601,0.2773532 0.214844,0.553331 0.214844,0.8203787 0,0.256971 -0.09551,0.4918607 -0.28125,0.6953687 -0.186877,0.2048268 -0.421027,0.3086188 -0.699219,0.3086188 -0.252735,0 -0.450608,-0.06525 -0.587891,-0.193375 C 9.8773182,5.9938765 9.7438282,5.8073883 9.5968022,5.540535 9.4266272,5.1997971 9.2217272,4.9308681 8.9854742,4.7416424 8.7561802,4.5577835 8.3715642,4.4642763 7.8448492,4.4642763 c -0.48921,0 -0.886308,0.1044928 -1.181641,0.3086186 -0.284638,0.1966755 -0.423828,0.422346 -0.423828,0.6895088 0,0.163825 0.04512,0.3001952 0.136719,0.4180025 0.09699,0.1248368 0.233327,0.2350208 0.40625,0.3261978 0.179369,0.095 0.363745,0.170744 0.548828,0.224628 0.189698,0.05547 0.508996,0.13785 0.945313,0.24416 0.552211,0.124914 1.059005,0.264885 1.507812,0.41605 0.4543748,0.153286 0.8477628,0.341064 1.1679688,0.560592 0.326871,0.224353 0.585876,0.513587 0.769531,0.857491 0.18414,0.345177 0.277344,0.770623 0.277344,1.265727 0,0.592384 -0.159764,1.13296 -0.476562,1.605598 -0.315664,0.470785 -0.78246,0.842703 -1.386719,1.107511 -0.5984718,0.262146 -1.3162568,0.396518 -2.1328128,0.396518 -0.980065,0 -1.801997,-0.182489 -2.4433591,-0.54106 -0.458514,-0.260985 -0.8360268,-0.614588 -1.1230469,-1.050866 -0.289876,-0.440638 -0.4375,-0.877283 -0.4375,-1.298933 0,-0.263532 0.0963,-0.492758 0.2851562,-0.679743 0.1869511,-0.18533 0.4252729,-0.279319 0.7109376,-0.279319 0.2344948,0 0.4371747,0.07427 0.6015624,0.22072 0.1570988,0.14028 0.2921507,0.347196 0.4003907,0.615285 0.1209081,0.291867 0.2533171,0.538313 0.3925781,0.732481 0.133804,0.186714 0.326306,0.344281 0.572266,0.466834 0.247351,0.123446 0.579997,0.185562 0.990234,0.185562 0.564187,0 1.027104,-0.126651 1.375,-0.376983 0.339875,-0.244504 0.505859,-0.537216 0.505859,-0.896557 0,-0.283918 -0.08632,-0.506639 -0.263672,-0.681696 C 9.3837882,9.11759 9.1384012,8.97448 8.8409432,8.876742 8.5307362,8.774875 8.1097722,8.665467 7.5889902,8.550544 6.8808172,8.390698 6.2784762,8.200516 5.7999274,7.986045 5.3105722,7.766633 4.9165739,7.462327 4.6280524,7.081675 4.3350259,6.695272 4.1866462,6.210106 4.1866462,5.6401524 4.1866462,5.0968711 4.3420774,4.607375 4.6495368,4.1849568 4.9546876,3.765511 5.3999716,3.439748 5.9737556,3.2161286 6.5400642,2.9954043 7.2134372,2.8840705 7.9757082,2.8840705 Z"
     id="path4005"
     inkscape:connector-curvature="0" />
</svg>
